<?xml version="1.0" encoding="UTF-8"?>
<svg id="Layer_2" data-name="Layer 2" xmlns="http://www.w3.org/2000/svg" viewBox="0 0 210.04 46.98">
  <defs>
    <style>
      .cls-1 {
        fill: #2a2c2d;
      }

      .cls-2 {
        fill: #1c99ad;
      }
    </style>
  </defs>
  <g id="Layer_1-2" data-name="Layer 1">
    <g>
      <g>
        <path class="cls-2" d="M83.92,22.18c-1.56,1.6-3.34,2.82-5.35,3.66-2.01,.84-4.1,1.26-6.29,1.26l-1.75-8.19c2.07,0,3.71-.54,4.94-1.61,1.23-1.07,2.08-2.74,2.54-5h-6.67V4.28h7.08V1.35h11v2.92h7.08V12.29h-6.73c.47,2.26,1.32,3.93,2.54,5,1.23,1.07,2.88,1.61,4.94,1.61l-1.76,8.19c-2.18,0-4.28-.43-6.29-1.29-2.01-.86-3.77-2.07-5.29-3.63Z"/>
        <path class="cls-1" d="M109.75,31.51c-1.74-1.7-3.93-2.54-6.58-2.54h-21.41c-2.65,0-4.85,.85-6.58,2.54-1.74,1.7-2.6,3.85-2.6,6.46s.87,4.77,2.6,6.46c1.73,1.7,3.93,2.54,6.58,2.54h21.41c2.65,0,4.85-.85,6.58-2.54,1.73-1.7,2.6-3.85,2.6-6.46s-.87-4.77-2.6-6.46Zm-8.72,7.25c-.21,.21-.48,.32-.79,.32h-15.56c-.31,0-.58-.11-.79-.32-.21-.21-.32-.48-.32-.79s.11-.58,.32-.79,.48-.32,.79-.32h15.56c.31,0,.57,.11,.79,.32,.21,.21,.32,.48,.32,.79s-.11,.58-.32,.79Z"/>
        <polygon class="cls-1" points="101.3 27.09 101.3 18.61 97.67 18.61 97.67 10.42 101.3 10.42 101.3 2.52 112.29 2.52 112.29 27.09 101.3 27.09"/>
        <path class="cls-2" d="M132.18,18.38c-1.52,1.33-3.29,2.33-5.29,3.01-2.01,.68-4.12,1.02-6.35,1.02l-2.34-7.02c2.38,0,4.39-.87,6.03-2.6,1.64-1.74,2.46-4.32,2.46-7.75V2.52h10.94v2.52c0,3.43,.82,6.02,2.46,7.75,1.64,1.74,3.65,2.6,6.03,2.6l-2.34,7.02c-2.22,0-4.34-.34-6.35-1.02-2.01-.68-3.75-1.69-5.24-3.01Z"/>
        <polygon class="cls-1" points="131.54 40.55 160.91 40.55 160.91 46.98 120.54 46.98 120.54 32.36 149.38 32.36 149.38 30.6 120.54 30.6 120.54 24.17 160.32 24.17 160.32 38.79 131.54 38.79 131.54 40.55"/>
        <polygon class="cls-1" points="149.38 22.41 149.38 13.64 142.3 13.64 142.3 6.62 149.38 6.62 149.38 2.52 160.32 2.52 160.32 22.41 149.38 22.41"/>
        <polygon class="cls-1" points="194.54 36.45 210.04 36.45 210.04 45.23 167.93 45.23 167.93 36.45 183.43 36.45 183.43 30.6 194.54 30.6 194.54 36.45"/>
        <path class="cls-2" d="M169.1,2.99V28.79h39.78V2.99h-39.78Zm28.78,17.02h-17.78V11.83h17.78v8.19Z"/>
      </g>
      <path class="cls-2" d="M6.67,4.5H0v5.88c0,9.95,8.07,18.02,18.02,18.02h5.88v-6.67c0-9.52-7.71-17.23-17.23-17.23Zm3.97,27.64v2.88c0,5.73,4.65,10.38,10.38,10.38h2.88v-13.26H10.64ZM43.48,3.69c-.87,0-1.67,.09-2.4,.25,0,0-.16-1.36-.16-1.36C40.79,1.54,39.97-.02,38.75,0c-.76,.01-1.27,.67-1.63,1.26-.48,.78-.88,1.61-1.18,2.48-.1,.28-.19,.57-.28,.86-.5,1.58-1.01,3.24-.93,4.92,.07,1.53,.69,3,1.69,4.16,.31,.36,.65,.68,1.02,.96-6.49,1.2-11.4,6.89-11.4,13.73v17.03h3.02c8.28,0,15-6.72,15-15v-13.77c.63,.03,1.25,.04,1.87,.04,6.4,0,9.05-3.59,9.05-6.49s-5.11-6.49-11.51-6.49Zm-1.25,7.94c-1.12,0-2.03-.91-2.03-2.03s.91-2.03,2.03-2.03,2.03,.91,2.03,2.03-.91,2.03-2.03,2.03Z"/>
    </g>
  </g>
</svg>